<svg aria-hidden="true" style="position: absolute; width: 0; height: 0; overflow: hidden;" version="1.1" xmlns="http://www.w3.org/2000/svg" xmlns:xlink="http://www.w3.org/1999/xlink">
<defs>
<symbol id="icon-Facebook" viewBox="0 0 32 32">
<path d="M18.18 27.636v-10.615h3.631l0.545-4.138h-4.176v-2.642c0-1.198 0.338-2.014 2.091-2.014l2.232-0.001v-3.701c-0.386-0.049-1.711-0.162-3.253-0.162-3.221 0-5.425 1.928-5.425 5.468v3.051h-3.642v4.138h3.642v10.615h4.356z"></path>
</symbol>
<symbol id="icon-Instagram" viewBox="0 0 32 32">
<path d="M10.134 2.909h11.731c3.984 0 7.226 3.241 7.225 7.225v11.731c0 3.984-3.241 7.225-7.225 7.225h-11.731c-3.984 0-7.225-3.241-7.225-7.225v-11.731c0-3.984 3.241-7.225 7.225-7.225zM21.866 26.768c2.703 0 4.902-2.199 4.902-4.902h-0v-11.731c0-2.703-2.199-4.902-4.902-4.902h-11.731c-2.703 0-4.902 2.199-4.902 4.902v11.731c0 2.703 2.199 4.902 4.902 4.902h11.731zM9.143 16c0-3.781 3.076-6.857 6.857-6.857s6.857 3.076 6.857 6.857c0 3.781-3.076 6.857-6.857 6.857s-6.857-3.076-6.857-6.857zM11.504 16c0 2.479 2.017 4.496 4.496 4.496s4.496-2.017 4.496-4.496c0-2.479-2.017-4.496-4.496-4.496s-4.496 2.017-4.496 4.496z"></path>
</symbol>
<symbol id="icon-letter" viewBox="0 0 29 32">
<path d="M27.536 10.912l-9.936-9.664c-0.842-0.8-1.959-1.246-3.12-1.246s-2.278 0.446-3.12 1.246l-9.936 9.6c-0.441 0.385-0.797 0.86-1.042 1.392s-0.376 1.11-0.382 1.696v13.728c0.017 1.164 0.494 2.274 1.328 3.087s1.956 1.262 3.12 1.249h19.904c1.164 0.013 2.286-0.436 3.12-1.249s1.311-1.923 1.328-3.087v-13.728c-0.001-0.562-0.114-1.119-0.33-1.638s-0.534-0.99-0.934-1.386v0zM13.504 3.552c0.245-0.224 0.564-0.348 0.896-0.348s0.651 0.124 0.896 0.348l8.704 8.448-8.752 8.448c-0.245 0.224-0.564 0.348-0.896 0.348s-0.651-0.124-0.896-0.348l-8.656-8.448 8.704-8.448zM25.6 27.664c-0.021 0.314-0.162 0.608-0.395 0.82s-0.539 0.325-0.853 0.316h-19.904c-0.315 0.009-0.62-0.104-0.853-0.316s-0.374-0.506-0.395-0.82v-12.704l6.48 6.24-2.656 2.56c-0.298 0.3-0.465 0.705-0.465 1.128s0.167 0.828 0.465 1.128c0.149 0.156 0.327 0.28 0.525 0.366s0.411 0.13 0.627 0.13c0.412-0.002 0.807-0.162 1.104-0.448l2.832-2.72c0.703 0.43 1.512 0.657 2.336 0.657s1.633-0.227 2.336-0.657l2.832 2.72c0.297 0.286 0.692 0.446 1.104 0.448 0.216-0.001 0.429-0.045 0.627-0.13s0.377-0.21 0.525-0.366c0.298-0.3 0.465-0.705 0.465-1.128s-0.167-0.828-0.465-1.128l-2.672-2.56 6.4-6.24v12.704z"></path>
</symbol>
<symbol id="icon-LinkedIn" viewBox="0 0 32 32">
<path d="M25.6 4h-19.2c-1.32 0-2.4 1.080-2.4 2.4v19.2c0 1.32 1.080 2.4 2.4 2.4h19.2c1.32 0 2.4-1.080 2.4-2.4v-19.2c0-1.32-1.080-2.4-2.4-2.4zM11.2 24.4h-3.6v-10.8h3.6v10.8zM9.4 11.56c-1.2 0-2.16-0.96-2.16-2.16s0.96-2.16 2.16-2.16c1.2 0 2.16 0.96 2.16 2.16s-0.96 2.16-2.16 2.16zM24.4 24.4h-3.6v-6.36c0-0.96-0.84-1.8-1.8-1.8s-1.8 0.84-1.8 1.8v6.36h-3.6v-10.8h3.6v1.44c0.6-0.96 1.92-1.68 3-1.68 2.28 0 4.2 1.92 4.2 4.2v6.84z"></path>
</symbol>
<symbol id="icon-Logofooter" viewBox="0 0 95 32">
<path fill="#fff" style="fill: var(--color1, #fff)" d="M54.316 6.711v3.587h-7.488v3.875h5.603v3.482h-5.603v7.436h-4.477v-18.38h11.965z"></path>
<path fill="#fff" style="fill: var(--color1, #fff)" d="M61.146 5.716v19.375h-4.477v-19.375h4.477z"></path>
<path fill="#fff" style="fill: var(--color1, #fff)" d="M78.162 17.55c0 0.419-0.026 0.855-0.079 1.309h-10.132c0.070 0.908 0.358 1.606 0.864 2.095 0.524 0.471 1.161 0.707 1.911 0.707 1.117 0 1.894-0.471 2.33-1.414h4.765c-0.244 0.96-0.689 1.824-1.335 2.592-0.628 0.768-1.423 1.37-2.383 1.807s-2.033 0.654-3.22 0.654c-1.431 0-2.705-0.305-3.823-0.916s-1.99-1.484-2.618-2.618c-0.628-1.135-0.943-2.461-0.943-3.98s0.305-2.845 0.916-3.98c0.628-1.135 1.501-2.007 2.618-2.618s2.4-0.916 3.849-0.916c1.414 0 2.671 0.297 3.77 0.89s1.955 1.44 2.566 2.54c0.628 1.1 0.942 2.383 0.942 3.849zM73.58 16.372c0-0.768-0.262-1.379-0.785-1.833s-1.178-0.681-1.964-0.681c-0.751 0-1.388 0.218-1.911 0.655-0.506 0.436-0.82 1.056-0.942 1.859h5.603z"></path>
<path fill="#fff" style="fill: var(--color1, #fff)" d="M89.164 25.091l-2.802-4.058-2.356 4.058h-4.844l4.817-7.462-4.948-7.148h5.027l2.802 4.032 2.356-4.032h4.844l-4.896 7.357 5.027 7.252h-5.027z"></path>
<path fill="#22c55e" style="fill: var(--color2, #22c55e)" d="M14.626 9.946c4.379 1.546 9.102 1.46 13.439-0.215 0.043-1.76-0.429-3.521-1.245-5.109l-0.429-0.859c-0.129 0.043-0.301 0.129-0.387 0.215-3.95 1.889-8.415 2.147-12.58 0.644-2.92-1.030-6.097-0.773-8.845 0.601l-0.859 0.429c0.043 0.129 0.129 0.301 0.215 0.386 0.515 1.116 0.945 2.319 1.245 3.564 3.006-0.859 6.355-0.773 9.446 0.343z"></path>
<path fill="#22c55e" style="fill: var(--color2, #22c55e)" d="M3.935 22.87l0.945-0.515c1.914-0.957 4.025-1.42 6.12-1.359 1.289 0.038 2.571 0.273 3.798 0.715 0.399 0.142 0.8 0.272 1.202 0.391v4.577c-1.662-0.309-3.345-0.353-5-0.14-1.716 0.221-3.403 0.719-5.004 1.485-0.086 0.086-0.258 0.172-0.386 0.215l-0.429-0.859c-0.73-1.417-1.159-2.963-1.245-4.508z"></path>
<path fill="#22c55e" style="fill: var(--color2, #22c55e)" d="M4.45 18.92c3.65-1.503 7.729-1.632 11.464-0.3 3.435 1.202 7.085 1.417 10.519 0.644-0.043-1.932 0.215-3.821 0.902-5.71-4.508 1.331-9.36 1.202-13.868-0.386-2.576-0.945-5.41-0.945-7.986-0.086 0.043 1.846-0.301 3.735-0.945 5.582 0 0-0.043 0.129-0.086 0.258z"></path>
</symbol>
<symbol id="icon-map" viewBox="0 0 26 32">
<path d="M21.818 5.062c-2.315-2.315-5.454-3.615-8.727-3.615s-6.413 1.3-8.727 3.615-3.615 5.454-3.615 8.727c0 3.273 1.3 6.413 3.615 8.727l7.665 7.68c0.135 0.136 0.296 0.244 0.473 0.318s0.367 0.112 0.559 0.112c0.192 0 0.382-0.038 0.559-0.112s0.338-0.182 0.473-0.318l7.724-7.753c2.305-2.305 3.6-5.431 3.6-8.691s-1.295-6.386-3.6-8.691zM19.738 20.363l-6.647 6.676-6.647-6.676c-1.313-1.314-2.207-2.989-2.569-4.811s-0.175-3.711 0.536-5.428 1.916-3.183 3.461-4.216c1.545-1.032 3.361-1.583 5.219-1.583s3.674 0.551 5.219 1.583 2.749 2.499 3.461 4.216c0.711 1.716 0.898 3.605 0.536 5.428s-1.256 3.497-2.569 4.811zM8.727 9.323c-1.174 1.178-1.834 2.773-1.834 4.436s0.659 3.258 1.834 4.436c0.872 0.874 1.983 1.471 3.194 1.715s2.466 0.127 3.609-0.339c1.143-0.466 2.124-1.259 2.818-2.281s1.072-2.225 1.084-3.459c0.007-0.824-0.152-1.642-0.467-2.404s-0.779-1.453-1.366-2.033c-0.576-0.59-1.264-1.060-2.023-1.383s-1.574-0.493-2.399-0.5-1.642 0.15-2.406 0.46c-0.764 0.311-1.459 0.769-2.045 1.349zM15.549 16.131c-0.551 0.56-1.28 0.91-2.061 0.992s-1.567-0.11-2.222-0.543c-0.655-0.433-1.14-1.080-1.371-1.831s-0.194-1.558 0.105-2.285 0.84-1.327 1.533-1.698c0.692-0.371 1.492-0.491 2.262-0.338s1.464 0.569 1.962 1.177 0.769 1.369 0.767 2.155c-0.021 0.898-0.398 1.751-1.047 2.371h0.073z"></path>
</symbol>
<symbol id="icon-phone" viewBox="0 0 32 32">
<path d="M27.856 17.6c-0.352 0-0.72-0.112-1.072-0.192-0.712-0.159-1.413-0.368-2.096-0.624-0.742-0.27-1.558-0.256-2.291 0.039s-1.33 0.851-1.677 1.561l-0.352 0.736c-1.554-0.881-2.989-1.957-4.272-3.2-1.243-1.283-2.319-2.718-3.2-4.272l0.736-0.336c0.709-0.347 1.265-0.945 1.561-1.677s0.309-1.548 0.039-2.291c-0.254-0.69-0.463-1.395-0.624-2.112-0.080-0.352-0.144-0.72-0.192-1.072-0.194-1.127-0.785-2.148-1.665-2.878s-1.992-1.123-3.135-1.106h-4.816c-0.676-0.001-1.345 0.141-1.963 0.417s-1.17 0.679-1.621 1.183c-0.46 0.518-0.803 1.129-1.005 1.792s-0.257 1.362-0.163 2.048c0.87 6.659 3.912 12.846 8.656 17.6 4.754 4.744 10.941 7.786 17.6 8.656 0.208 0.016 0.416 0.016 0.624 0 1.18 0.002 2.319-0.431 3.2-1.216 0.504-0.451 0.907-1.003 1.183-1.621s0.418-1.287 0.417-1.963v-4.8c-0.009-1.106-0.399-2.174-1.104-3.025s-1.683-1.433-2.768-1.647zM28.64 27.2c-0 0.223-0.048 0.444-0.139 0.648s-0.224 0.387-0.389 0.536c-0.175 0.16-0.384 0.279-0.611 0.348s-0.466 0.087-0.701 0.052c-5.971-0.78-11.52-3.501-15.792-7.744-4.276-4.276-7.021-9.844-7.808-15.84-0.035-0.235-0.017-0.474 0.052-0.701s0.188-0.436 0.348-0.611c0.151-0.168 0.337-0.302 0.543-0.393s0.431-0.137 0.657-0.135h4.8c0.37-0.009 0.731 0.11 1.023 0.338s0.496 0.549 0.577 0.91c0 0.432 0.144 0.88 0.24 1.312 0.185 0.838 0.431 1.662 0.736 2.464l-2.24 1.056c-0.385 0.177-0.684 0.499-0.832 0.896-0.16 0.39-0.16 0.826 0 1.216 2.303 4.932 6.268 8.897 11.2 11.2 0.39 0.16 0.827 0.16 1.216 0 0.397-0.148 0.719-0.447 0.896-0.832l1.008-2.24c0.825 0.301 1.67 0.547 2.528 0.736 0.416 0.096 0.864 0.176 1.296 0.24 0.361 0.081 0.683 0.285 0.91 0.577s0.347 0.653 0.338 1.023l0.144 4.944zM19.2 0c-0.368 0-0.752 0-1.12 0-0.424 0.036-0.817 0.239-1.092 0.565s-0.408 0.747-0.372 1.171c0.036 0.424 0.239 0.817 0.565 1.092s0.747 0.409 1.171 0.372h0.848c2.546 0 4.988 1.011 6.788 2.812s2.812 4.242 2.812 6.788c0 0.288 0 0.56 0 0.848-0.035 0.422 0.098 0.841 0.371 1.165s0.663 0.526 1.085 0.563h0.128c0.401 0.002 0.787-0.147 1.083-0.417s0.481-0.64 0.517-1.039c0-0.368 0-0.752 0-1.12 0-3.392-1.346-6.645-3.743-9.045s-5.649-3.75-9.041-3.755zM22.4 12.8c0 0.424 0.169 0.831 0.469 1.131s0.707 0.469 1.131 0.469 0.831-0.169 1.131-0.469c0.3-0.3 0.469-0.707 0.469-1.131 0-1.697-0.674-3.325-1.874-4.526s-2.828-1.875-4.526-1.875c-0.424 0-0.831 0.169-1.131 0.469s-0.469 0.707-0.469 1.131 0.169 0.831 0.469 1.131c0.3 0.3 0.707 0.469 1.131 0.469 0.849 0 1.663 0.337 2.263 0.937s0.937 1.414 0.937 2.263z"></path>
</symbol>
<symbol id="icon-play" viewBox="0 0 27 32">
<path d="M24.8 14.608l-22.4-12.928c-0.243-0.14-0.519-0.214-0.8-0.214s-0.557 0.074-0.8 0.214c-0.244 0.141-0.447 0.344-0.587 0.588s-0.214 0.522-0.213 0.804v25.856c-0.001 0.282 0.072 0.559 0.213 0.804s0.343 0.448 0.587 0.588c0.243 0.14 0.519 0.214 0.8 0.214s0.557-0.074 0.8-0.214l22.4-12.928c0.246-0.14 0.451-0.342 0.594-0.586s0.218-0.523 0.218-0.806c0-0.283-0.075-0.561-0.218-0.806s-0.347-0.447-0.594-0.586zM3.2 26.16v-20.32l17.6 10.16-17.6 10.16z"></path>
</symbol>
<symbol id="icon-social" viewBox="0 0 32 32">
<path d="M30.4 0h-28.8c-0.424 0-0.831 0.169-1.131 0.469s-0.469 0.707-0.469 1.131v28.8c0 0.424 0.169 0.831 0.469 1.131s0.707 0.469 1.131 0.469h28.8c0.424 0 0.831-0.169 1.131-0.469s0.469-0.707 0.469-1.131v-28.8c0-0.424-0.169-0.831-0.469-1.131s-0.707-0.469-1.131-0.469zM9.6 28.8h-6.4v-6.4h6.4v6.4zM9.6 19.2h-6.4v-6.4h6.4v6.4zM9.6 9.6h-6.4v-6.4h6.4v6.4zM19.2 28.8h-6.4v-6.4h6.4v6.4zM19.2 19.2h-6.4v-6.4h6.4v6.4zM19.2 9.6h-6.4v-6.4h6.4v6.4zM28.8 28.8h-6.4v-6.4h6.4v6.4zM28.8 19.2h-6.4v-6.4h6.4v6.4zM28.8 9.6h-6.4v-6.4h6.4v6.4z"></path>
</symbol>
<symbol id="icon-Twitter" viewBox="0 0 32 32">
<path d="M29.091 8.194c-0.91 0.403-1.887 0.677-2.913 0.799 1.048-0.627 1.85-1.622 2.23-2.804-0.983 0.581-2.067 1.003-3.223 1.232-0.926-0.987-2.242-1.602-3.702-1.602-2.801 0-5.073 2.271-5.073 5.071 0 0.397 0.045 0.785 0.131 1.156-4.215-0.212-7.953-2.231-10.454-5.3-0.437 0.748-0.686 1.619-0.686 2.55 0 1.76 0.896 3.313 2.256 4.221-0.831-0.028-1.613-0.256-2.298-0.637v0.063c0 2.457 1.749 4.507 4.068 4.974-0.425 0.114-0.873 0.178-1.337 0.178-0.328 0-0.644-0.033-0.955-0.094 0.646 2.016 2.519 3.483 4.737 3.523-1.735 1.36-3.923 2.168-6.3 2.168-0.409 0-0.813-0.025-1.21-0.069 2.245 1.442 4.911 2.282 7.775 2.282 9.331 0 14.432-7.729 14.432-14.432l-0.017-0.657c0.997-0.711 1.859-1.604 2.537-2.621z"></path>
</symbol>
</defs>
</svg>
